<?xml version="1.0" encoding="utf-8"?>
<!-- Generator: Adobe Illustrator 18.0.0, SVG Export Plug-In . SVG Version: 6.00 Build 0)  -->
<!DOCTYPE svg PUBLIC "-//W3C//DTD SVG 1.1//EN" "http://www.w3.org/Graphics/SVG/1.1/DTD/svg11.dtd">
<svg version="1.1" id="Layer_1" focusable="false" xmlns="http://www.w3.org/2000/svg" xmlns:xlink="http://www.w3.org/1999/xlink"
	 x="0px" y="0px" viewBox="0 0 1366 768" enable-background="new 0 0 1366 768" xml:space="preserve">
<path fill="#45AEF4" d="M1031,96h-12v30c0,9.9-8.1,18-18,18h-60c-9.9,0-18-8.1-18-18V96H443v30c0,9.9-8.1,18-18,18h-60
	c-9.9,0-18-8.1-18-18V96h-12c-20,0-36,16-36,36v504c0,19.9,16,36,36,36h12v-30c0-9.9,8.1-18,18-18h60c9.9,0,18,8.1,18,18v30h480v-30
	c0-9.9,8.1-18,18-18h60c9.9,0,18,8.1,18,18v30h12c19.9,0,36-16.1,36-36V132C1067,112,1050.9,96,1031,96z M443,558
	c0,9.9-8.1,18-18,18h-60c-9.9,0-18-8.1-18-18v-60c0-9.9,8.1-18,18-18h60c9.9,0,18,8.1,18,18V558z M443,414c0,9.9-8.1,18-18,18h-60
	c-9.9,0-18-8.1-18-18v-60c0-9.9,8.1-18,18-18h60c9.9,0,18,8.1,18,18V414z M443,270c0,9.9-8.1,18-18,18h-60c-9.9,0-18-8.1-18-18v-60
	c0-9.9,8.1-18,18-18h60c9.9,0,18,8.1,18,18V270z M851,582c0,9.9-8.1,18-18,18H533c-9.9,0-18-8.1-18-18V438c0-9.9,8.1-18,18-18h300
	c9.9,0,18,8.1,18,18V582z M851,330c0,9.9-8.1,18-18,18H533c-9.9,0-18-8.1-18-18V186c0-9.9,8.1-18,18-18h300c9.9,0,18,8.1,18,18V330z
	 M1019,558c0,9.9-8.1,18-18,18h-60c-9.9,0-18-8.1-18-18v-60c0-9.9,8.1-18,18-18h60c9.9,0,18,8.1,18,18V558z M1019,414
	c0,9.9-8.1,18-18,18h-60c-9.9,0-18-8.1-18-18v-60c0-9.9,8.1-18,18-18h60c9.9,0,18,8.1,18,18V414z M1019,270c0,9.9-8.1,18-18,18h-60
	c-9.9,0-18-8.1-18-18v-60c0-9.9,8.1-18,18-18h60c9.9,0,18,8.1,18,18V270z"/>
</svg>
