<?xml version="1.0" encoding="UTF-8"?>
<svg xmlns="http://www.w3.org/2000/svg" xmlns:xlink="http://www.w3.org/1999/xlink" width="50pt" height="50pt" viewBox="0 0 50 50" version="1.1">
<g id="surface1">
<path style=" stroke:none;fill-rule:nonzero;fill:rgb(5.490196%,66.666667%,34.509804%);fill-opacity:1;" d="M 47.425781 3.625 C 46.949219 2.550781 45.550781 2.5 44.976562 3.523438 C 42.273438 8.199219 37.476562 11.125 31.976562 11.125 L 25 11.125 C 15.800781 11.125 8.324219 18.601562 8.324219 27.800781 C 8.324219 28.398438 8.398438 29 8.449219 29.574219 C 14 25.601562 22 22.226562 33.324219 22.226562 C 34.101562 22.226562 34.726562 22.851562 34.726562 23.625 C 34.726562 24.398438 34.101562 25.023438 33.324219 25.023438 C 11.5 25 2.25 38.375 0.199219 43.398438 C -0.375 44.824219 0.300781 46.425781 1.726562 47 C 3.148438 47.601562 4.773438 46.898438 5.351562 45.5 C 5.476562 45.175781 7.175781 41.351562 11.601562 37.625 C 14.398438 41.425781 19.75 45.074219 26.773438 44.324219 C 40.398438 43.324219 50 31.125 50 16.148438 C 50 11.824219 49.074219 7.300781 47.425781 3.625 Z M 47.425781 3.625 "/>
</g>
</svg>
