<?xml version="1.0" encoding="utf-8"?>
<!-- Generator: Adobe Illustrator 18.0.0, SVG Export Plug-In . SVG Version: 6.00 Build 0)  -->
<!DOCTYPE svg PUBLIC "-//W3C//DTD SVG 1.1//EN" "http://www.w3.org/Graphics/SVG/1.1/DTD/svg11.dtd">
<svg version="1.1" id="Layer_1" focusable="false" xmlns="http://www.w3.org/2000/svg" xmlns:xlink="http://www.w3.org/1999/xlink"
	 x="0px" y="0px" viewBox="0 0 1366 768" enable-background="new 0 0 1366 768" xml:space="preserve">
<path fill="#F8C331" d="M894.2,528h33.6c9.6,0,19.2-9.6,19.2-19.2V163.2c0-9.6-9.6-19.2-19.2-19.2h-33.6c-9.6,0-19.2,9.6-19.2,19.2
	v345.6C875,518.4,884.6,528,894.2,528z M606.2,528h33.6c9.6,0,19.2-9.6,19.2-19.2V211.2c0-9.6-9.6-19.2-19.2-19.2h-33.6
	c-9.6,0-19.2,9.6-19.2,19.2v297.6C587,518.4,596.6,528,606.2,528z M750.2,528h33.6c9.6,0,19.2-9.6,19.2-19.2V307.2
	c0-9.6-9.6-19.2-19.2-19.2h-33.6c-9.6,0-19.2,9.6-19.2,19.2v201.6C731,518.4,740.6,528,750.2,528z M1043,600H371V120
	c0-13.3-10.7-24-24-24h-24c-13.3,0-24,10.7-24,24v504c0,26.5,21.5,48,48,48h696c13.3,0,24-10.7,24-24v-24
	C1067,610.7,1056.3,600,1043,600z M462.2,528h33.6c9.6,0,19.2-9.6,19.2-19.2V403.2c0-9.6-9.6-19.2-19.2-19.2h-33.6
	c-9.6,0-19.2,9.6-19.2,19.2v105.6C443,518.4,452.6,528,462.2,528L462.2,528z"/>
</svg>
