<?xml version="1.0" encoding="utf-8"?>
<!-- Generator: Adobe Illustrator 18.0.0, SVG Export Plug-In . SVG Version: 6.00 Build 0)  -->
<!DOCTYPE svg PUBLIC "-//W3C//DTD SVG 1.1//EN" "http://www.w3.org/Graphics/SVG/1.1/DTD/svg11.dtd">
<svg version="1.1" id="Layer_1" focusable="false" xmlns="http://www.w3.org/2000/svg" xmlns:xlink="http://www.w3.org/1999/xlink"
	 x="0px" y="0px" viewBox="0 0 1366 768" enable-background="new 0 0 1366 768" xml:space="preserve">
<path fill="#202340" d="M779,504c0,13.3-10.7,24-24,24H611c-13.3,0-24-10.7-24-24v-72H299v216c0,38.4,33.6,72,72,72h624
	c38.4,0,72-33.6,72-72V432H779V504z M995,192H875v-72c0-38.4-33.6-72-72-72H563c-38.4,0-72,33.6-72,72v72H371c-38.4,0-72,33.6-72,72
	v120h768V264C1067,225.6,1033.4,192,995,192z M779,192H587v-48h192V192z"/>
</svg>
