<?xml version="1.0" encoding="utf-8"?>
<!-- Generator: Adobe Illustrator 18.0.0, SVG Export Plug-In . SVG Version: 6.00 Build 0)  -->
<!DOCTYPE svg PUBLIC "-//W3C//DTD SVG 1.1//EN" "http://www.w3.org/Graphics/SVG/1.1/DTD/svg11.dtd">
<svg version="1.1" id="Layer_1" focusable="false" xmlns="http://www.w3.org/2000/svg" xmlns:xlink="http://www.w3.org/1999/xlink"
	 x="0px" y="0px" viewBox="0 0 1366 768" enable-background="new 0 0 1366 768" xml:space="preserve">
<path fill="#10C45C" d="M1043,192v24c0,6.6-5.4,12-12,12h-36v18c0,9.9-8.1,18-18,18H389c-9.9,0-18-8.1-18-18v-18h-36
	c-6.6,0-12-5.4-12-12v-24c0-4.9,2.9-9.2,7.4-11.1l348-132c2.9-1.2,6.2-1.2,9.2,0l348,132C1040.1,182.8,1043,187.1,1043,192z
	 M1007,648H359c-19.9,0-36,16.1-36,36v24c0,6.6,5.4,12,12,12h696c6.6,0,12-5.4,12-12v-24C1043,664.1,1026.9,648,1007,648z M443,288
	v288h-54c-9.9,0-18,8.1-18,18v30h624v-30c0-9.9-8.1-18-18-18h-54V288h-96v288h-96V288h-96v288h-96V288H443z"/>
</svg>
