<?xml version="1.0" encoding="utf-8"?>
<!-- Generator: Adobe Illustrator 18.0.0, SVG Export Plug-In . SVG Version: 6.00 Build 0)  -->
<!DOCTYPE svg PUBLIC "-//W3C//DTD SVG 1.1//EN" "http://www.w3.org/Graphics/SVG/1.1/DTD/svg11.dtd">
<svg version="1.1" id="Layer_1" focusable="false" xmlns="http://www.w3.org/2000/svg" xmlns:xlink="http://www.w3.org/1999/xlink"
	 x="0px" y="0px" viewBox="0 0 1366 768" enable-background="new 0 0 1366 768" xml:space="preserve">
<path fill="#24CCC0" d="M1019,540V36c0-20-16.1-36-36-36H491c-79.5,0-144,64.5-144,144v480c0,79.5,64.5,144,144,144h492
	c19.9,0,36-16.1,36-36v-24c0-11.3-5.3-21.4-13.3-28.1c-6.3-23.1-6.3-88.9,0-112C1013.8,561.4,1019,551.2,1019,540L1019,540z
	 M539,201c0-5,4-9,9-9h318c4.9,0,9,4,9,9v30c0,5-4.1,9-9,9H548c-5,0-9-4-9-9V201z M539,297c0-5,4-9,9-9h318c4.9,0,9,4,9,9v30
	c0,5-4.1,9-9,9H548c-5,0-9-4-9-9V297z M919.1,672H491c-26.5,0-48-21.4-48-48c0-26.4,21.6-48,48-48h428.1
	C916.3,601.7,916.3,646.3,919.1,672z"/>
</svg>
