<?xml version="1.0" encoding="utf-8"?>
<!-- Generator: Adobe Illustrator 18.0.0, SVG Export Plug-In . SVG Version: 6.00 Build 0)  -->
<!DOCTYPE svg PUBLIC "-//W3C//DTD SVG 1.1//EN" "http://www.w3.org/Graphics/SVG/1.1/DTD/svg11.dtd">
<svg version="1.1" id="Layer_1" xmlns="http://www.w3.org/2000/svg" xmlns:xlink="http://www.w3.org/1999/xlink" x="0px" y="0px"
	 viewBox="0 0 1366 768" enable-background="new 0 0 1366 768" xml:space="preserve">
<g>
	<g transform="translate(0.000000,512.000000) scale(0.100000,-0.100000)">
		<path fill="#6788A9" d="M7835.5,5035.2c-135.4-38.2-209-98.6-263.4-220.7c-53-119.2-63.3-242.8-30.9-395.8
			c23.6-116.3,23.6-129.5,0-226.6c-30.9-120.7-72.1-176.6-170.7-225.2c-61.8-32.4-91.2-36.8-231-36.8c-191.3,0-276.6-22-387-100.1
			c-45.6-32.4-132.4-73.6-203.1-97.2c-194.2-61.8-350.2-142.8-487.1-250.1c-69.2-54.5-170.7-126.6-228.1-158.9
			c-178-103-214.8-132.5-251.7-206.1c-94.2-186.9-148.6-547.4-161.9-1071.3c-7.4-281.1-13.2-341.4-36.8-400.3
			c-42.7-105.9-51.5-232.5-22-313.4c14.7-36.8,38.2-73.6,53-80.9c36.8-19.1,257.5-19.1,326.7,0c64.7,19.1,85.3,50,85.3,128
			c0,32.3,10.3,70.7,22,86.8c28,38.2,26.5,75-5.9,148.6c-17.7,36.8-47.1,70.7-73.6,85.3c-36.8,17.7-45.6,32.4-45.6,69.2
			c0,94.2,76.5,413.5,138.3,582.8c79.5,211.9,107.4,316.4,120.7,445.9l10.3,98.6l60.4,7.4c135.4,19.1,450.3,150.1,590.1,244.3
			c54.5,38.2,104.4,39.7,122.1,5.9c7.4-14.7,17.7-79.5,23.6-142.8c5.9-85.3,33.9-191.3,98.6-388.5
			c107.4-329.6,130.9-429.7,130.9-588.6c0-150.1-32.4-251.6-139.8-444.4c-122.2-216.3-142.8-279.6-151.6-451.8
			c-4.5-89.8,0-188.3,10.3-241.3l17.7-89.8l-69.2-105.9c-126.6-186.9-245.8-444.4-335.5-718.2C6210.9-441.9,6160.8-499.2,5893-536
			c-350.2-50.1-404.7-75-959.5-437.1c-172.2-111.8-341.4-214.8-375.2-226.6c-48.5-17.7-108.9-22.1-254.6-19.1
			c-313.4,7.4-372.3,2.9-423.8-26.5c-73.6-44.2-83.9-78-80.9-292.8c1.5-189.8,0-194.2-48.5-301.7c-48.5-106-50-113.4-50-300.2
			c0-198.7,16.2-275.2,66.2-301.7c45.6-23.6,91.2,16.2,130.9,117.7c35.3,85.3,200.1,326.7,378.2,550.3
			c123.6,157.4,253.1,213.4,844.6,369.3c300.2,79.5,679.8,201.6,915.3,295.8c91.2,35.3,219.3,78,284,94.2
			c167.7,42.7,234,79.5,320.8,179.6c42.7,47.1,157.4,153.1,256.1,234c314.9,259,428.2,401.7,644.5,807.9
			c61.8,117.7,117.7,217.8,123.6,223.6c4.4,5.9,66.2-8.8,135.4-32.3c157.4-54.5,347.3-94.2,587.1-123.6
			c553.3-67.7,706.3-89.8,706.3-100.1c0-7.4-19.1-47.1-42.7-89.8C8927.3-135.7,8892-369.7,8917-830.3c13.3-232.6,13.3-347.3,0-451.8
			c-25-214.8-78-406.1-145.7-529.8c-67.7-122.1-92.7-223.6-75-301.7c20.6-86.8,60.4-114.7,239.8-166.3
			c91.2-26.5,247.2-80.9,345.8-120.7c216.3-88.3,301.7-98.6,475.3-64.7c132.4,26.5,194.2,60.4,201.6,107.4
			c5.9,35.3-35.3,67.7-158.9,129.5C9574.8-2115,9382-1941.4,9330.5-1803c-76.5,204.5-60.4,306,198.7,1267
			c61.8,226.6,138.3,507.6,172.2,625.4c47.1,167.7,60.4,238.4,60.4,331.1c0,182.5-26.5,216.3-292.8,360.5
			c-64.7,35.3-194.2,108.9-289.9,164.8c-307.5,181-565,289.8-987.3,416.4c-95.7,28-183.9,51.5-197.2,51.5
			c-28,0-23.6,23.6,36.8,242.8c58.8,217.8,100.1,395.8,133.9,590.1c28,166.3,75,410.6,83.9,444.4c4.5,13.2,35.3-5.9,86.9-51.5
			c80.9-72.1,423.8-264.9,547.4-306c60.4-20.6,70.7-20.6,119.2,2.9c29.4,14.7,101.5,72.1,161.9,128
			c173.6,166.3,285.5,354.7,407.7,694.6c60.4,169.3,78,203.1,139.8,267.8c54.5,55.9,78,97.2,97.1,158.9
			c23.6,80.9,23.6,86.8-2.9,135.4c-29.4,55.9-106,120.7-186.9,158.9c-47.1,22-58.8,23.6-91.2,5.9c-19.1-10.3-39.7-30.9-45.6-47.1
			c-4.5-14.7-16.2-26.5-28-26.5c-10.3,0-33.9-11.8-51.5-26.5c-42.7-33.9-55.9-172.2-23.5-272.3c20.6-70.7,20.6-72.1-28-164.8
			c-64.7-123.6-117.7-188.4-251.7-301.7c-61.8-53-133.9-123.6-159-156l-47.1-60.4l-76.5,92.7c-41.2,51.5-125.1,133.9-185.4,182.5
			c-95.7,79.5-108.9,95.6-116.2,151.6c-26.5,182.5-95.7,303.1-220.7,384.1c-42.7,28-104.5,79.5-139.8,116.3
			c-51.5,51.5-63.3,73.6-58.8,107.4c4.4,45.6-5.9,44.2,156,32.3c67.7-4.4,91.2,13.3,91.2,72.1c0,17.7,10.3,42.7,23.6,54.5
			c11.8,13.2,17.7,29.4,13.2,38.2c-4.4,7.4-4.4,23.6,2.9,32.4c5.9,10.3,8.8,36.8,5.9,58.8c-2.9,36.8,1.5,41.2,41.2,41.2
			c23.5,0,48.5,5.9,53,14.7c4.4,7.4-2.9,50-16.2,94.2c-23.6,76.5-23.6,85.3,0,161.9c22,69.2,23.5,92.7,8.8,166.3
			c-39.7,189.8-145.7,328.2-291.4,379.7C8104.8,5039.6,7900.3,5052.9,7835.5,5035.2z"/>
	</g>
</g>
</svg>
