<?xml version="1.0" encoding="utf-8"?>
<!-- Generator: Adobe Illustrator 18.0.0, SVG Export Plug-In . SVG Version: 6.00 Build 0)  -->
<!DOCTYPE svg PUBLIC "-//W3C//DTD SVG 1.1//EN" "http://www.w3.org/Graphics/SVG/1.1/DTD/svg11.dtd">
<svg version="1.1" id="Layer_1" focusable="false" xmlns="http://www.w3.org/2000/svg" xmlns:xlink="http://www.w3.org/1999/xlink"
	 x="0px" y="0px" viewBox="0 0 1366 768" enable-background="new 0 0 1366 768" xml:space="preserve">
<path fill="#FC5F42" d="M1002.8,605.3L827,322.5V96h12c19.9,0,36-16.1,36-36V36c0-20-16.1-36-36-36H527c-20,0-36,16-36,36v24
	c0,19.9,16,36,36,36h12v226.5L363.2,605.3c-44,70.7,6.8,162.8,90.1,162.8h459.3C996.2,768,1046.8,675.8,1002.8,605.3z M553.8,480
	l72.3-116.4c5.5-7.8,8.7-17.4,8.7-27.6V96h96v240c0,10.3,3.3,19.8,8.7,27.6L811.8,480H553.8z"/>
</svg>
