<?xml version="1.0" encoding="utf-8"?>
<!-- Generator: Adobe Illustrator 18.0.0, SVG Export Plug-In . SVG Version: 6.00 Build 0)  -->
<!DOCTYPE svg PUBLIC "-//W3C//DTD SVG 1.1//EN" "http://www.w3.org/Graphics/SVG/1.1/DTD/svg11.dtd">
<svg version="1.1" id="Layer_1" focusable="false" xmlns="http://www.w3.org/2000/svg" xmlns:xlink="http://www.w3.org/1999/xlink"
	 x="0px" y="0px" viewBox="0 0 1366 768" enable-background="new 0 0 1366 768" xml:space="preserve">
<path fill="#DB90CA" d="M1097,336c9.9,0,18-8.1,18-18V210c0-9.9-8.1-18-18-18H989c-9.9,0-18,8.1-18,18v18H839v-36h18
	c9.9,0,18-8.1,18-18V66c0-9.9-8.1-18-18-18H749c-9.9,0-18,8.1-18,18v18H395V66c0-9.9-8.1-18-18-18H269c-9.9,0-18,8.1-18,18v108
	c0,9.9,8.1,18,18,18h18v240h-18c-9.9,0-18,8.1-18,18v108c0,9.9,8.1,18,18,18h108c9.9,0,18-8.1,18-18v-18h132v36h-18
	c-9.9,0-18,8.1-18,18v108c0,9.9,8.1,18,18,18h108c9.9,0,18-8.1,18-18v-18h336v18c0,9.9,8.1,18,18,18h108c9.9,0,18-8.1,18-18V594
	c0-9.9-8.1-18-18-18h-18V336H1097z M779,96h48v48h-48V96z M779,480h48v48h-48V480z M347,528h-48v-48h48V528z M347,144h-48V96h48V144
	z M395,468v-18c0-9.9-8.1-18-18-18h-18V192h18c9.9,0,18-8.1,18-18v-18h336v18c0,9.9,8.1,18,18,18h18v240h-18c-9.9,0-18,8.1-18,18v18
	H395z M587,672h-48v-48h48V672z M1007,576h-18c-9.9,0-18,8.1-18,18v18H635v-18c0-9.9-8.1-18-18-18h-18v-36h132v18
	c0,9.9,8.1,18,18,18h108c9.9,0,18-8.1,18-18V450c0-9.9-8.1-18-18-18h-18V300h132v18c0,9.9,8.1,18,18,18h18V576z M1067,672h-48v-48
	h48V672z M1067,288h-48v-48h48V288z"/>
</svg>
