<?xml version="1.0" encoding="utf-8"?>
<!-- Generator: Adobe Illustrator 20.1.0, SVG Export Plug-In . SVG Version: 6.00 Build 0)  -->
<svg version="1.1" id="Layer_1" xmlns="http://www.w3.org/2000/svg" xmlns:xlink="http://www.w3.org/1999/xlink" x="0px" y="0px"
	 viewBox="0 0 400 400" style="enable-background:new 0 0 400 400;" xml:space="preserve">
<style type="text/css">
	.st0{fill:#43B759;}
	.st1{fill:none;stroke:#43B759;stroke-width:4;stroke-miterlimit:10;}
	.st2{fill:none;stroke:#FFFFFF;stroke-width:8;stroke-miterlimit:10;}
	.st3{fill:none;stroke:#43B759;stroke-width:5;stroke-miterlimit:10;}
</style>
<circle class="st0" cx="114.9" cy="82.6" r="28.1"/>
<path class="st0" d="M81.6,213.7l-3.4-1.1v25.7c0,0-34.8-10.2-39.2-48.9c-1.9-38.6,23.7-65.6,23.7-65.6s12.1-11.7,20-11.6
	s24.9,2.8,24.9,2.8l-19.8,0.5c0,0-14.8,2.6-22,15.7c-7.2,13.1-8.8,21.6-7.4,32.8c1.5,11.2,7.4,22.9,13.7,29.4
	C67.9,204,67.9,204,67.9,204l13.7,5.7V213.7z"/>
<rect x="90.5" y="170.5" transform="matrix(0.9225 0.3859 -0.3859 0.9225 74.4471 -27.1439)" class="st0" width="28.7" height="2.8"/>
<rect x="88.2" y="176" transform="matrix(0.9225 0.3859 -0.3859 0.9225 76.399 -25.8248)" class="st0" width="28.7" height="2.8"/>
<line class="st1" x1="243.7" y1="147.4" x2="289.4" y2="147.4"/>
<polyline class="st1" points="157.1,253.6 363.8,253.6 235,66.3 178.4,147.4 188.3,147.4 "/>
<path class="st2" d="M168.8,151.6c1.5,2.7,2.9,3.8,4.8,4.4c0.4,0.1,0.9,0.1,1.3,0.2c-1.1-4.4-2.3-8.5-3.8-12.4
	c-1.2,1.5-2.4,3-3.5,4.5C167.8,149.3,168.2,150.4,168.8,151.6z"/>
<path class="st0" d="M146.7,118.5c-0.2-0.1-0.5-0.1-0.7-0.1h-1.8h-2.7h-35.9c0,0,1.1,23.6-6.4,36.3l-7.2-2.9c0,0,6.7-20.5,6.1-33.4
	H87.7h-1h-0.5c0,0-0.1,0-0.3,0.1c-0.6,0.1-1.2,0.3-1.7,0.6c-3.3,1.2-9.9,4.5-14.5,11.5c-6.3,9.6-7.4,15.7-7.4,15.7
	s-5.8,13.2,1.9,29.1c5.3,11,10,17,12.5,19.7c0.9,1,1.9,1.9,3,2.6l12.1,8.6c0,0,0,0,0,0c1.8,1.3,4.1,2.1,6.5,1.8
	c4.3-0.4,7.8-3.9,8.3-8.1c0.5-4.3-1.9-8.1-5.5-9.7c0,0,0,0,0,0c-4.6-3.5-12.9-10.7-18.2-21.2c0-0.1,0-0.1-0.1-0.2l0,0
	c-0.6-1.5-1-2.7-1.5-3.8v0.4c-4.7-13.3,3.5-21.8,3.5-21.8l4.9-5.3l0,0c0.2-0.2,0.4-0.3,0.4-0.3s0,0.4,0,3.1c-11,8.3-6,24.7-6,24.7
	l0.2-0.5l4.3-10.3l38.7,16l-20.9,49.8l-25.2-10.7v9v3V335c0,8.6,6.7,16,15.3,16.1c8.8,0.2,15.9-6.9,15.9-15.6V221.8h5.3V335
	c0,8.6,6.7,16,15.3,16.1c8.8,0.2,15.9-6.9,15.9-15.6V221.8v-3v-70.5c0,0,11.8,24.4,8.1,78.5c0,0.2,0,0.3,0,0.5
	c0,0.4-0.1,0.8-0.1,1.3c0,0,0.1,0,0.1,0c0.3,5.8,5,10.5,10.7,10.5c5.6,0,10.2-4.4,10.7-9.9c0,0,0,0,0.1,0
	C179.8,205,180.5,127.7,146.7,118.5z"/>
<line class="st3" x1="211.7" y1="99.7" x2="257.3" y2="99.7"/>
<line class="st1" x1="197" y1="188.8" x2="186" y2="188.8"/>
<line class="st1" x1="248" y1="188.8" x2="231.7" y2="188.8"/>
<line class="st1" x1="319.3" y1="188.8" x2="293.9" y2="188.8"/>
<path class="st0" d="M253.6,114.3c-0.6,0-1.2,0.1-1.8,0.3c0.2-0.6,0.3-1.2,0.3-1.8c0-3.4-2.8-6.2-6.2-6.2c-3.4,0-6.2,2.8-6.2,6.2
	c0,2,0.9,3.7,2.4,4.8c-0.1,0.1-7.5,7.5-12,12c4.6,0,6.8,6.8,6.8,6.8l12-12l0,0c1.1,1.4,2.8,2.2,4.7,2.2c3.4,0,6.2-2.8,6.2-6.2
	C259.8,117,257,114.3,253.6,114.3z"/>
<path class="st0" d="M236,140.5c0,0-0.8-7.3-8.4-9.4c-7.5-2.1-17.8,2-17.8,2s-6.7,2.4-12,10.8c-5.3,8.4,3.3,20.1,10.4,23.3
	c7.1,3.2,16.2,3.2,23-7C238,150,236,140.5,236,140.5z M205.5,152.9c-1.6,0-2.9-1.3-2.9-2.9c0-1.6,1.3-2.9,2.9-2.9
	c1.6,0,2.9,1.3,2.9,2.9C208.4,151.6,207.1,152.9,205.5,152.9z M212.1,143.8c-1.6,0-2.9-1.3-2.9-2.9c0-1.6,1.3-2.9,2.9-2.9
	c1.6,0,2.9,1.3,2.9,2.9C214.9,142.5,213.7,143.8,212.1,143.8z M221.7,142.4c-1.6,0-2.9-1.3-2.9-2.9c0-1.6,1.3-2.9,2.9-2.9
	c1.6,0,2.9,1.3,2.9,2.9C224.6,141.1,223.3,142.4,221.7,142.4z"/>
<path class="st0" d="M269.6,157.7c-10.9,0-19.7,8.8-19.7,19.7c0,10.9,8.8,19.7,19.7,19.7c10.9,0,19.7-8.8,19.7-19.7
	C289.3,166.5,280.5,157.7,269.6,157.7z M271,162.6c-0.2-0.9,0.4-1.7,1.2-1.9c1.5-0.2,3.9-0.2,5,1.9c0.4,0.8,0,1.8-0.9,2.1
	c-1.5,0.4-3,0-3,0S271.4,164.1,271,162.6z M275.9,170.4c-1,0-1.8-0.8-1.8-1.8c0-1,0.8-1.8,1.8-1.8s1.8,0.8,1.8,1.8
	C277.6,169.6,276.8,170.4,275.9,170.4z M280.8,169c-1,0-1.8-0.8-1.8-1.8c0-1,0.8-1.8,1.8-1.8s1.8,0.8,1.8,1.8
	C282.5,168.3,281.7,169,280.8,169z"/>
<path class="st0" d="M279.2,213.8L279.2,213.8c-2-6.5-8.9-10.1-15.4-8.1l-5.6,1.7l0.5,10l-6.2-8.2l-9.7,3l0.5,10.6l-6.6-8.7
	l-7.5,2.3l0.6,12.6l-7.6-10.5l4.5-1.4l-9,2.8c-6.5,2-10.1,8.9-8.1,15.4c2,6.5,8.9,10.1,15.4,8.1l46.1-14.3
	C277.6,227.2,281.3,220.3,279.2,213.8z"/>
<path class="st0" d="M224.2,190.4l-10.1-10.1c-0.9-0.9-2.4-0.9-3.4,0c-0.9,0.9-0.9,2.4,0,3.4l0.5,0.5l-8.6,9.1
	c-0.3,0.3-0.7,0.6-1.1,0.8l-15.7,7.6l-0.1,4.7l7.4-5l11.1,11.1c0,1.2-3.5,6.2-5.8,9.4c-1.2,1.7-2.5,3.3-4,4.7l-19,19.5l-2.4-2.5
	l-2.9,1.3l3.9,3.9c1,0.9,2.6,0.8,3.5-0.2c3.9-3.9,13.6-13.8,21.9-22.7c7.2-6.9,11-19.2,12-22.7c0.2-0.6,0.5-1.2,1-1.7l8-8l0.3,0.3
	c0.9,0.9,2.4,0.9,3.4,0C225.1,192.9,225.1,191.4,224.2,190.4z"/>
<path class="st0" d="M322.9,227c0-8-6.5-14.4-14.4-14.4c-3.7,0-7,1.4-9.6,3.6c-6.7,1.3-11.8,7.1-11.8,14.2c0,8,6.5,14.4,14.4,14.4
	c3.7,0,7-1.4,9.6-3.6C317.8,239.9,322.9,234.1,322.9,227z"/>
<path class="st0" d="M297.9,216.5c0,0-5-5.7-11.9-5.1c3.3-3.6,3.3-3.6,3.3-3.6s6.5,2.3,10.9,7.5c4.4,5.2-2.2,1.4-2.2,1.4
	L297.9,216.5z"/>
<path class="st0" d="M299.7,212.7v-8.5c0,0,0.1-1.7,1.3-2.2s7-4.8,6.6-6.8c1.6-0.4,2.4,2.8,2.8,5.4c0.4,2.4-0.4,5-2.3,6.6
	c-0.4,0.3-0.8,0.6-1.1,0.7c-1.7,0.7-4,1.9-4.4,2.2C302.2,210.6,299.7,212.7,299.7,212.7z"/>
</svg>
