<?xml version="1.0" encoding="UTF-8"?>
<svg xmlns="http://www.w3.org/2000/svg" xmlns:xlink="http://www.w3.org/1999/xlink" width="50pt" height="50pt" viewBox="0 0 50 50" version="1.1">
<g id="surface1">
<path style=" stroke:none;fill-rule:nonzero;fill:rgb(27.058824%,68.235294%,95.686275%);fill-opacity:1;" d="M 20 31.25 C 20 29.976562 20.101562 30.574219 13.351562 17.074219 C 11.976562 14.324219 8.023438 14.300781 6.648438 17.074219 C -0.148438 30.675781 0 30.023438 0 31.25 C 0 34.699219 4.476562 37.5 10 37.5 C 15.523438 37.5 20 34.699219 20 31.25 Z M 10 18.75 L 15.625 30 L 4.375 30 Z M 50 31.25 C 50 29.976562 50.101562 30.574219 43.351562 17.074219 C 41.976562 14.324219 38.023438 14.300781 36.648438 17.074219 C 29.851562 30.675781 30 30.023438 30 31.25 C 30 34.699219 34.476562 37.5 40 37.5 C 45.523438 37.5 50 34.699219 50 31.25 Z M 34.375 30 L 40 18.75 L 45.625 30 Z M 41.25 40 L 27.5 40 L 27.5 16.976562 C 29.324219 16.175781 30.726562 14.523438 31.125 12.5 L 41.25 12.5 C 41.949219 12.5 42.5 11.949219 42.5 11.25 L 42.5 8.75 C 42.5 8.050781 41.949219 7.5 41.25 7.5 L 29.976562 7.5 C 28.824219 6 27.050781 5 25 5 C 22.949219 5 21.175781 6 20.023438 7.5 L 8.75 7.5 C 8.050781 7.5 7.5 8.050781 7.5 8.75 L 7.5 11.25 C 7.5 11.949219 8.050781 12.5 8.75 12.5 L 18.875 12.5 C 19.273438 14.5 20.648438 16.175781 22.5 16.976562 L 22.5 40 L 8.75 40 C 8.050781 40 7.5 40.550781 7.5 41.25 L 7.5 43.75 C 7.5 44.449219 8.050781 45 8.75 45 L 41.25 45 C 41.949219 45 42.5 44.449219 42.5 43.75 L 42.5 41.25 C 42.5 40.550781 41.949219 40 41.25 40 Z M 41.25 40 "/>
</g>
</svg>
