<?xml version="1.0" encoding="UTF-8"?>
<svg xmlns="http://www.w3.org/2000/svg" xmlns:xlink="http://www.w3.org/1999/xlink" width="50pt" height="50pt" viewBox="0 0 50 50" version="1.1">
<g id="surface1">
<path style=" stroke:none;fill-rule:nonzero;fill:rgb(14.117647%,80%,75.294118%);fill-opacity:1;" d="M 31.273438 23.800781 L 26.425781 33.5 C 25.851562 34.675781 24.148438 34.648438 23.601562 33.449219 L 18.023438 21.125 L 15.101562 28.125 L 5.925781 28.125 L 23.75 46.351562 C 24.449219 47.074219 25.574219 47.074219 26.25 46.351562 L 44.074219 28.125 L 33.425781 28.125 Z M 46.25 7.226562 L 46.023438 6.976562 C 41 1.851562 32.773438 1.851562 27.726562 6.976562 L 25 9.773438 L 22.273438 6.976562 C 17.25 1.824219 9 1.824219 3.976562 6.976562 L 3.75 7.226562 C -1 12.101562 -1.199219 19.824219 3.023438 25 L 13.023438 25 L 16.523438 16.574219 C 17.050781 15.324219 18.824219 15.273438 19.398438 16.523438 L 25.074219 29.148438 L 29.851562 19.601562 C 30.425781 18.449219 32.074219 18.449219 32.648438 19.601562 L 35.351562 25 L 46.949219 25 C 51.226562 19.824219 51.023438 12.074219 46.25 7.226562 Z M 46.25 7.226562 "/>
</g>
</svg>
