<?xml version="1.0" encoding="UTF-8"?>
<svg xmlns="http://www.w3.org/2000/svg" xmlns:xlink="http://www.w3.org/1999/xlink" width="50pt" height="50pt" viewBox="0 0 50 50" version="1.1">
<g id="surface1">
<path style=" stroke:none;fill-rule:nonzero;fill:rgb(96.470588%,62.745098%,35.294118%);fill-opacity:1;" d="M 16.25 32.5 C 16.074219 32.5 15.875 32.523438 15.699219 32.574219 C 14.675781 32.898438 13.625 33.125 12.5 33.125 C 11.375 33.125 10.324219 32.925781 9.300781 32.574219 C 9.125 32.523438 8.925781 32.5 8.75 32.5 C 3.898438 32.5 -0.0234375 36.449219 0 41.300781 C 0 43.351562 1.699219 45 3.75 45 L 21.25 45 C 23.300781 45 25 43.351562 25 41.300781 C 25.023438 36.449219 21.101562 32.5 16.25 32.5 Z M 12.5 30 C 16.648438 30 20 26.648438 20 22.5 C 20 18.351562 16.648438 15 12.5 15 C 8.351562 15 5 18.351562 5 22.5 C 5 26.648438 8.351562 30 12.5 30 Z M 46.25 5 L 16.25 5 C 14.175781 5 12.5 6.75 12.5 8.875 L 12.5 12.5 C 14.324219 12.5 16.023438 13.023438 17.5 13.898438 L 17.5 10 L 45 10 L 45 32.5 L 40 32.5 L 40 27.5 L 30 27.5 L 30 32.5 L 24.050781 32.5 C 25.550781 33.800781 26.625 35.523438 27.148438 37.5 L 46.25 37.5 C 48.324219 37.5 50 35.75 50 33.625 L 50 8.875 C 50 6.75 48.324219 5 46.25 5 Z M 46.25 5 "/>
</g>
</svg>
