<?xml version="1.0" encoding="utf-8"?>
<!-- Generator: Adobe Illustrator 19.0.0, SVG Export Plug-In . SVG Version: 6.00 Build 0)  -->
<svg version="1.1" id="Layer_1" xmlns="http://www.w3.org/2000/svg" xmlns:xlink="http://www.w3.org/1999/xlink" x="0px" y="0px"
	 viewBox="0 0 500 600" style="enable-background:new 0 0 500 600;" xml:space="preserve">
<style type="text/css">
	.st0{fill-rule:evenodd;clip-rule:evenodd;}
</style>
<g id="XMLID_99_">
	<path id="XMLID_201_" d="M250.2,41.8c67.9,0,129.3,27.5,173.8,72c44.5,44.5,72,106,72,173.8c0,67.9-27.5,129.3-72,173.8
		c-44.5,44.5-106,72-173.8,72c-67.9,0-129.3-27.5-173.8-72c-44.5-44.5-72-106-72-173.8c0-67.9,27.5-129.3,72-173.8
		C120.8,69.3,182.3,41.8,250.2,41.8L250.2,41.8z M420.4,117.3c-43.6-43.6-103.8-70.5-170.3-70.5c-66.5,0-126.7,27-170.3,70.5
		C36.3,160.9,9.3,221.1,9.3,287.6s27,126.7,70.5,170.3c43.6,43.6,103.8,70.5,170.3,70.5s126.7-27,170.3-70.5
		C464,414.3,491,354.1,491,287.6C491,221.1,464,160.9,420.4,117.3L420.4,117.3z"/>
	<path id="XMLID_95_" class="st0" d="M54,169.9c5.6,0,10.2,4.6,10.2,10.2c0,5.6-4.6,10.2-10.2,10.2s-10.2-4.6-10.2-10.2
		C43.9,174.5,48.4,169.9,54,169.9L54,169.9z"/>
	<path id="XMLID_197_" d="M250.2,82.2c56.7,0,108.1,23,145.2,60.2c37.2,37.2,60.2,88.5,60.2,145.2c0,56.7-23,108.1-60.2,145.2
		C358.2,470,306.9,493,250.2,493c-56.7,0-108.1-23-145.2-60.2c-37.2-37.2-60.2-88.5-60.2-145.2c0-56.7,23-108.1,60.2-145.2
		C142.1,105.2,193.4,82.2,250.2,82.2L250.2,82.2z M391.8,145.9c-36.3-36.3-86.4-58.7-141.7-58.7c-55.3,0-105.4,22.4-141.7,58.7
		c-36.3,36.3-58.7,86.4-58.7,141.7c0,55.3,22.4,105.4,58.7,141.7c36.3,36.3,86.4,58.7,141.7,58.7c55.3,0,105.4-22.4,141.7-58.7
		c36.3-36.3,58.7-86.4,58.7-141.7C450.6,232.3,428.1,182.2,391.8,145.9L391.8,145.9z"/>
	<path id="XMLID_92_" class="st0" d="M247.5,264.9h-32.5c-22.9-10.8-16.6-42.4-2.4-68.4h18.3c-13.2,23.8-21.5,45.4-6,56.7h22.6h22.6
		c15.4-11.2,7.2-32.9-6-56.7h18.3c14.2,26,20.6,57.6-2.4,68.4H247.5L247.5,264.9z"/>
	<path id="XMLID_91_" class="st0" d="M241.3,247.9H256v-66.4c7.3,0,14.6,0,21.9,0c-0.7-1.9-1.4-3.9-2.1-5.8
		c-0.7-1.9-1.4-3.9-2.1-5.8c-8.4,0-16.7,0-25.1,0c-8.4,0-16.7,0-25.1,0c-0.7,1.9-1.4,3.9-2.1,5.8c-0.7,1.9-1.4,3.9-2.1,5.8
		c7.3,0,14.6,0,21.9,0V247.9L241.3,247.9z"/>
	<polygon id="XMLID_90_" class="st0" points="83.8,339.5 98.9,339.5 103.6,325.1 108.3,339.5 123.4,339.5 111.2,348.4 115.9,362.8 
		103.6,353.9 91.3,362.8 96,348.4 83.8,339.5 	"/>
	<polygon id="XMLID_89_" class="st0" points="126.1,396.6 141.3,396.6 146,382.2 150.6,396.6 165.8,396.6 153.5,405.5 158.2,419.9 
		146,411 133.7,419.9 138.4,405.5 126.1,396.6 	"/>
	<polygon id="XMLID_88_" class="st0" points="190.9,436.4 206.1,436.4 210.8,422 215.4,436.4 230.6,436.4 218.3,445.3 223,459.7 
		210.8,450.8 198.5,459.7 203.2,445.3 190.9,436.4 	"/>
	<polygon id="XMLID_87_" class="st0" points="416,339.5 400.9,339.5 396.2,325.1 391.5,339.5 376.3,339.5 388.6,348.4 383.9,362.8 
		396.2,353.9 408.4,362.8 403.8,348.4 416,339.5 	"/>
	<polygon id="XMLID_86_" class="st0" points="373.7,396.6 358.5,396.6 353.8,382.2 349.1,396.6 334,396.6 346.2,405.5 341.5,419.9 
		353.8,411 366.1,419.9 361.4,405.5 373.7,396.6 	"/>
	<polygon id="XMLID_85_" class="st0" points="308.9,436.4 293.7,436.4 289,422 284.3,436.4 269.2,436.4 281.4,445.3 276.7,459.7 
		289,450.8 301.3,459.7 296.6,445.3 308.9,436.4 	"/>
	<path id="XMLID_184_" class="st0" d="M202,376.4v-25.6h-4.5v-8.7h15v34.3H202L202,376.4z M230.1,365.1c-2.8-0.7-4.9-1.9-6.4-3.7
		c-1.5-1.8-2.2-4-2.2-6.7c0-3.9,1.2-7,3.7-9.5c2.5-2.5,5.7-3.7,9.6-3.7c1.7,0,3.3,0.3,4.8,0.9c1.5,0.6,2.9,1.5,4,2.6
		c1.1,1.1,2,2.4,2.6,3.8c0.6,1.4,0.9,3,0.9,4.6c0,1.4-0.2,2.8-0.6,4.2c-0.4,1.4-1.1,3-2,4.8l-7.3,14h-11.5l10.3-19.7
		c0-0.1,0.1-0.2,0.2-0.3c0.5-1,0.7-1.7,0.7-2.3c0-0.8-0.2-1.5-0.7-2c-0.5-0.5-1.1-0.7-1.9-0.7c-0.7,0-1.3,0.2-1.8,0.7
		c-0.5,0.5-0.7,1.1-0.7,1.8c0,0.7,0.3,1.3,0.8,1.7c0.5,0.4,1.2,0.6,2.2,0.6L230.1,365.1L230.1,365.1z M258.8,365.1
		c-2.8-0.7-4.9-1.9-6.4-3.7c-1.5-1.8-2.2-4-2.2-6.7c0-3.9,1.2-7,3.7-9.5c2.5-2.5,5.7-3.7,9.6-3.7c1.7,0,3.3,0.3,4.8,0.9
		c1.5,0.6,2.9,1.5,4,2.6c1.1,1.1,2,2.4,2.6,3.8c0.6,1.4,0.9,3,0.9,4.6c0,1.4-0.2,2.8-0.6,4.2c-0.4,1.4-1.1,3-2,4.8l-7.3,14h-11.5
		l10.3-19.7c0-0.1,0.1-0.2,0.2-0.3c0.5-1,0.7-1.7,0.7-2.3c0-0.8-0.2-1.5-0.7-2c-0.5-0.5-1.1-0.7-1.9-0.7c-0.7,0-1.3,0.2-1.8,0.7
		c-0.5,0.5-0.7,1.1-0.7,1.8c0,0.7,0.3,1.3,0.8,1.7c0.5,0.4,1.2,0.6,2.2,0.6L258.8,365.1L258.8,365.1z M291.6,376.4v-6.9h-6.5
		c-2.2,0-3.9-0.5-5.2-1.4c-1.2-1-1.8-2.3-1.8-4c0-0.7,0.1-1.4,0.3-2.1c0.2-0.7,0.5-1.4,0.9-2l10.7-17.9h9.7l-11.5,19h4.5v-4
		l9.3-15.6v18.7h4v9.2h-4v6.9H291.6L291.6,376.4z"/>
	<path id="XMLID_181_" d="M248.7,288.6c-4-4.4-8.7-7.7-13.9-9.9c-5.2-2.2-11.1-3.3-17.6-3.2c-32.1,1.5-54.6,6.2-76.1,10.8
		c-16.1,3.4-31.6,6.7-50.1,8.4L81.7,306l156.4,0.1l0.3,1.7c0.5,2.8,1.7,5,3.6,6.5c1.9,1.5,4.7,2.5,8.2,2.8c3.5-0.3,6.3-1.2,8.2-2.8
		c1.9-1.5,3.1-3.7,3.6-6.5l0.3-1.7c52,0,104.3-0.1,156.4-0.1l-9.4-11.3c-18.5-1.7-34-5-50.1-8.4c-21.4-4.6-43.9-9.3-76.1-10.8
		c-6.5,0-12.3,1-17.6,3.2c-5.2,2.2-9.9,5.5-13.9,9.9l-1.5,1.7L248.7,288.6L248.7,288.6z M234.8,310.2H53.5V306h22.9l12.7-15.2
		l0.8-0.1c18.7-1.6,34.2-5,50.4-8.4c21.6-4.6,44.2-9.4,76.7-10.9h0.1c7.1-0.1,13.5,1.1,19.2,3.5c5.1,2.1,9.8,5.3,13.8,9.4
		c4.1-4.1,8.7-7.2,13.8-9.4c5.8-2.4,12.2-3.6,19.2-3.5h0.1c32.5,1.5,55.2,6.3,76.7,10.9c16.2,3.4,31.7,6.7,50.4,8.4l0.8,0.1
		l12.7,15.2h22.2v4.3H265.6c-0.8,3-2.4,5.4-4.7,7.2c-2.6,2.1-6.1,3.3-10.6,3.6H250c-4.4-0.4-7.9-1.6-10.6-3.6
		C237.2,315.6,235.6,313.2,234.8,310.2L234.8,310.2z"/>
	<path id="XMLID_78_" class="st0" d="M250.2,304.8c4.6,0,8.3,2.3,8.3,5.2c0,2.9-3.7,5.2-8.3,5.2c-4.6,0-8.3-2.3-8.3-5.2
		C241.9,307.1,245.6,304.8,250.2,304.8L250.2,304.8z"/>
	<path id="XMLID_155_" d="M71.2,134.8l12.7,9.9c1.4,1.1,2.4,2.4,3,3.8c0.6,1.4,0.7,2.9,0.4,4.5c-0.3,1.6-1.1,3.1-2.3,4.7
		c-1.8,2.4-3.9,3.7-6.2,4.1c-2.3,0.4-4.5-0.2-6.6-1.8l-12.8-10l3.7-4.7l12.9,10c2.2,1.6,4,1.4,5.5-0.5c0.7-1,1.1-1.9,0.9-2.8
		c-0.1-0.9-0.8-1.8-2-2.8l-12.7-9.9L71.2,134.8L71.2,134.8z M107.3,132.4l-4.1,4.3l-17.1-4.3L97.3,143l-4.1,4.3l-17.8-17l4.1-4.3
		l17,4.3l-11.1-10.6l4.1-4.3L107.3,132.4L107.3,132.4z M115.2,126.1l-4.5,3.9l-16-18.6l4.5-3.9L115.2,126.1L115.2,126.1z M122,112.2
		l-6.4-17.4l5.4-3.8l7.5,24.8l-5.3,3.8l-20.9-15.3l5.3-3.8L122,112.2L122,112.2z M144.7,93.4l-8.1,4.7l2.9,5.1l9.5-5.5l2.3,3.9
		l-14.6,8.5l-12.3-21.3l14.7-8.5l2.3,3.9l-9.6,5.5l2.6,4.5l8.1-4.7L144.7,93.4L144.7,93.4z M158.2,88.6l-2.9,1.3l3.6,7.9l-5.4,2.4
		l-10.1-22.4l8.8-4c2.7-1.2,5-1.5,7-1c2,0.5,3.5,1.8,4.5,4c0.7,1.6,1,3,0.8,4.3c-0.2,1.3-0.8,2.6-1.8,3.8l8.8,6.9l0.1,0.2l-5.8,2.6
		L158.2,88.6L158.2,88.6z M153.4,85.8l3.4-1.5c1-0.5,1.7-1.1,1.9-1.9c0.3-0.8,0.2-1.6-0.2-2.6c-0.4-1-1-1.6-1.8-1.9
		c-0.8-0.3-1.7-0.2-2.7,0.2l-3.4,1.5L153.4,85.8L153.4,85.8z M184,80.9c-0.3-0.8-0.8-1.4-1.5-1.6c-0.7-0.3-1.9-0.4-3.5-0.4
		c-1.6,0-3-0.1-4.1-0.2c-3.5-0.4-5.7-2-6.6-4.6c-0.4-1.3-0.5-2.6,0-3.8c0.4-1.2,1.2-2.4,2.4-3.4c1.2-1,2.6-1.8,4.3-2.4
		c1.7-0.6,3.3-0.8,4.8-0.6c1.5,0.1,2.8,0.6,4,1.5c1.1,0.8,1.9,2,2.4,3.4l-5.6,1.9c-0.3-0.9-0.9-1.6-1.6-1.9c-0.8-0.3-1.6-0.3-2.6,0
		c-1,0.3-1.7,0.8-2.1,1.5c-0.4,0.6-0.5,1.3-0.3,2c0.2,0.6,0.7,1,1.5,1.3c0.8,0.3,2.1,0.4,3.9,0.4c1.8,0,3.3,0.1,4.5,0.3
		c3,0.6,4.9,2.2,5.8,4.7c0.7,2,0.5,3.9-0.7,5.6c-1.1,1.7-3,3-5.7,3.9c-1.9,0.6-3.7,0.9-5.5,0.7c-1.8-0.2-3.2-0.7-4.4-1.6
		c-1.2-0.9-2-2.1-2.5-3.7l5.6-1.9c0.4,1.3,1.1,2.1,1.9,2.5c0.8,0.4,2,0.3,3.4-0.2c0.9-0.3,1.6-0.8,2-1.4
		C184.1,82.3,184.2,81.6,184,80.9L184,80.9z M200.8,83l-5.7,1.3l-5.5-23.9l5.7-1.3L200.8,83L200.8,83z M219.7,58.9l-7.2,1.3
		l3.5,19.7l-5.8,1.1l-3.6-19.7l-7.1,1.3l-0.8-4.5l20.2-3.6L219.7,58.9L219.7,58.9z M240.1,66.8l-9.3,0.7l0.4,5.9l11-0.8l0.3,4.5
		l-16.9,1.3l-1.9-24.5l16.9-1.3l0.3,4.5l-11,0.8l0.4,5.2l9.3-0.7L240.1,66.8L240.1,66.8z M265.2,57.5l-7.4-0.2l-0.5,20l-5.9-0.2
		l0.5-20l-7.2-0.2l0.1-4.6l20.5,0.6L265.2,57.5L265.2,57.5z M273.4,78.3l-5.9-0.4l1.9-24.5l5.9,0.4L273.4,78.3L273.4,78.3z
		 M292.2,81.3l-5.8-1l4.4-24.2l5.8,1L292.2,81.3L292.2,81.3z M327.5,69.9l-7.1-2L315,87.2l-5.7-1.6l5.4-19.2l-7-2L309,60l19.8,5.6
		L327.5,69.9L327.5,69.9z M342.3,86.4l-8.7-3.4l-2.2,5.5l10.2,4l-1.7,4.2l-15.7-6.2l9-22.8l15.8,6.2l-1.7,4.2l-10.3-4.1l-1.9,4.8
		l8.7,3.4L342.3,86.4L342.3,86.4z M368.6,89.2l-6.6-3.3l-9.1,17.8l-5.3-2.7l9.1-17.8l-6.4-3.3l2.1-4.1l18.3,9.3L368.6,89.2
		L368.6,89.2z M384.9,110.7c-1.4,2-3,3.4-4.8,4.4c-1.8,1-3.7,1.4-5.6,1.3c-1.9-0.1-3.7-0.8-5.4-2c-1.7-1.2-2.9-2.7-3.7-4.4
		c-0.8-1.7-1-3.6-0.7-5.6c0.3-2,1.1-3.9,2.4-5.8l0.8-1.1c1.4-2,3-3.4,4.8-4.4c1.8-1,3.6-1.4,5.6-1.3c1.9,0.1,3.7,0.8,5.5,2
		c1.7,1.2,2.9,2.7,3.7,4.4c0.8,1.8,1,3.6,0.7,5.6c-0.3,2-1.2,4-2.5,5.9L384.9,110.7L384.9,110.7z M380.6,106.4
		c1.4-2,2.2-3.7,2.2-5.3c0.1-1.5-0.5-2.7-1.7-3.6c-2.4-1.7-5-0.8-7.7,2.7l-1.1,1.5c-1.4,2-2.2,3.7-2.3,5.2c-0.1,1.5,0.5,2.7,1.8,3.7
		c1.2,0.9,2.5,1,3.9,0.4c1.4-0.6,2.8-1.8,4.2-3.8L380.6,106.4L380.6,106.4z M391.9,123.1l15.4-10.3l5,4.3L390,130.2l-4.9-4.2
		l9.9-23.9l5,4.3L391.9,123.1L391.9,123.1z M415.5,140.8l-6.4-6.7l-4.2,4.1l7.6,7.9l-3.3,3.1L397.4,137l17.8-17l11.7,12.3l-3.3,3.1
		l-7.6-8l-3.7,3.6l6.4,6.7L415.5,140.8L415.5,140.8z M422.6,119.2c0.5,0.5,0.7,1.1,0.8,1.8c0,0.7-0.2,1.2-0.6,1.6
		c-0.4,0.4-1,0.6-1.7,0.6c-0.7-0.1-1.2-0.3-1.7-0.8c-0.5-0.5-0.8-1.1-0.8-1.8c0-0.7,0.2-1.2,0.6-1.6c0.5-0.4,1-0.6,1.7-0.6
		C421.5,118.4,422.1,118.7,422.6,119.2L422.6,119.2z M428.6,125.6c0.5,0.5,0.7,1.1,0.8,1.8c0,0.7-0.2,1.2-0.6,1.6
		c-0.4,0.4-1,0.6-1.7,0.6c-0.7-0.1-1.2-0.3-1.7-0.8c-0.5-0.5-0.8-1.1-0.8-1.8c0-0.7,0.2-1.2,0.6-1.6c0.5-0.4,1-0.6,1.7-0.6
		C427.5,124.8,428.1,125,428.6,125.6L428.6,125.6z M423.5,157.1c0.7-0.5,1-1.2,1-2c0-0.8-0.3-1.9-0.8-3.5c-0.5-1.5-0.9-2.8-1.2-3.9
		c-0.7-3.5,0-6,2.1-7.7c1.1-0.8,2.3-1.3,3.6-1.3c1.3,0,2.6,0.4,4,1.1c1.4,0.8,2.6,1.9,3.7,3.3c1.1,1.4,1.8,2.8,2.2,4.3
		c0.4,1.5,0.3,2.9-0.1,4.2c-0.4,1.3-1.2,2.5-2.4,3.4l-3.6-4.6c0.8-0.6,1.2-1.3,1.3-2.2c0.1-0.8-0.2-1.6-0.9-2.5
		c-0.7-0.8-1.4-1.3-2.1-1.5c-0.7-0.2-1.4-0.1-2,0.4c-0.5,0.4-0.7,1-0.7,1.9c0,0.8,0.3,2.1,1,3.8c0.6,1.7,1,3.1,1.2,4.4
		c0.4,3-0.4,5.4-2.5,7c-1.7,1.3-3.5,1.7-5.5,1.2c-2-0.5-3.8-1.9-5.6-4.1c-1.2-1.6-2.1-3.2-2.5-4.9c-0.4-1.7-0.4-3.3,0.1-4.7
		c0.5-1.4,1.3-2.6,2.6-3.6l3.7,4.7c-1,0.8-1.6,1.7-1.7,2.6c-0.1,0.9,0.4,2,1.3,3.2c0.6,0.8,1.2,1.2,1.9,1.4
		C422.3,157.7,422.9,157.5,423.5,157.1L423.5,157.1z"/>
	<path id="XMLID_53_" class="st0" d="M446.3,169.9c5.6,0,10.2,4.6,10.2,10.2c0,5.6-4.6,10.2-10.2,10.2c-5.6,0-10.2-4.6-10.2-10.2
		C436.2,174.5,440.7,169.9,446.3,169.9L446.3,169.9z"/>
	<path id="XMLID_131_" d="M291.7,495.2l1.8,15.2c0.2,1.7,0,3.3-0.6,4.6c-0.6,1.4-1.5,2.5-2.8,3.4c-1.3,0.9-2.9,1.4-4.8,1.7
		c-2.8,0.4-5.2,0-7-1.2c-1.8-1.2-2.9-3.1-3.2-5.7l-1.8-15.3l5.7-0.8l1.8,15.4c0.4,2.5,1.7,3.6,4,3.3c1.2-0.2,2-0.6,2.5-1.4
		c0.5-0.7,0.7-1.8,0.5-3.2L286,496L291.7,495.2L291.7,495.2z M320.5,512l-5.5,1.4l-11.3-12.2l3.1,14.2l-5.5,1.4l-5-22.8l5.5-1.4
		l11.3,12.2l-3.1-14.2l5.5-1.4L320.5,512L320.5,512z M332.9,507.3l-5.4,1.9l-7.3-22.1l5.4-1.9L332.9,507.3L332.9,507.3z
		 M345.8,494.9l-2.6-17.5l5.8-2.7l2.2,24.6l-5.7,2.7l-16.6-17.9l5.8-2.7L345.8,494.9L345.8,494.9z M370.8,477.2l-7.8,4.6l2.7,4.8
		l9.2-5.4l2.1,3.7l-14.1,8.3l-11.5-20.2l14.2-8.3l2.1,3.7l-9.2,5.4l2.4,4.3l7.8-4.6L370.8,477.2L370.8,477.2z M384.4,469.7l-2.5,1.8
		l4.7,6.7l-4.7,3.4l-13.4-18.9l7.6-5.5c2.3-1.7,4.4-2.5,6.4-2.4c2,0.1,3.6,1,4.9,2.8c0.9,1.3,1.4,2.6,1.5,3.9
		c0.1,1.3-0.3,2.6-1.1,3.9l9.4,4.7l0.1,0.2l-5,3.6L384.4,469.7L384.4,469.7z M379.4,468l2.9-2.1c0.9-0.6,1.4-1.3,1.5-2.1
		c0.1-0.8-0.1-1.6-0.7-2.4c-0.6-0.8-1.3-1.3-2-1.4c-0.8-0.1-1.6,0.1-2.5,0.7l-2.9,2.1L379.4,468L379.4,468z M407.3,453.3
		c-0.5-0.6-1.2-0.9-1.9-0.9c-0.8,0-1.9,0.4-3.3,1c-1.4,0.6-2.7,1.1-3.7,1.4c-3.3,0.9-5.8,0.4-7.5-1.5c-0.8-1-1.3-2.1-1.4-3.3
		c-0.1-1.2,0.2-2.5,0.9-3.9c0.7-1.3,1.7-2.6,3-3.8c1.3-1.1,2.6-1.9,4-2.4c1.4-0.5,2.8-0.5,4-0.2c1.3,0.3,2.4,1,3.3,2.1l-4.3,3.8
		c-0.6-0.7-1.3-1.1-2.1-1.1c-0.8,0-1.6,0.3-2.3,1c-0.8,0.7-1.2,1.4-1.4,2.1c-0.2,0.7,0,1.3,0.4,1.9c0.4,0.4,1,0.6,1.8,0.6
		c0.8-0.1,2-0.5,3.6-1.2c1.6-0.7,3-1.2,4.1-1.4c2.9-0.6,5.2,0,6.8,1.9c1.3,1.5,1.8,3.2,1.4,5.1c-0.4,1.9-1.7,3.8-3.7,5.6
		c-1.5,1.3-3,2.2-4.6,2.7c-1.6,0.5-3.1,0.6-4.5,0.3c-1.4-0.4-2.5-1.1-3.5-2.3l4.3-3.8c0.8,0.9,1.7,1.4,2.6,1.4c0.9,0,1.9-0.5,3-1.5
		c0.7-0.6,1.1-1.3,1.3-1.9C408,454.5,407.8,453.9,407.3,453.3L407.3,453.3z M424.1,444.7l-3.9,4.2L403.4,433l3.9-4.2L424.1,444.7
		L424.1,444.7z M425.6,413.2l-4.4,5.6l14.9,11.6l-3.6,4.5l-14.9-11.6l-4.3,5.5l-3.4-2.6l12.3-15.7L425.6,413.2L425.6,413.2z
		 M437.7,405.3l-6.1-9l3.4-5.2l8.4,14.4l7,4.4l-3.2,4.9l-7-4.4l-16.7-1.5l3.4-5.2L437.7,405.3L437.7,405.3z M459,368.6
		c2.1,0.9,3.7,2.1,5,3.6c1.2,1.5,2,3.1,2.2,4.9c0.2,1.8-0.1,3.6-1,5.5c-0.8,1.8-2,3.3-3.5,4.3c-1.5,1.1-3.2,1.6-5.1,1.8
		c-1.9,0.1-3.9-0.2-5.9-1.1l-1.2-0.5c-2.1-0.9-3.8-2.1-5-3.6c-1.2-1.5-2-3.1-2.2-4.9c-0.2-1.8,0.1-3.7,1-5.5c0.8-1.8,2-3.3,3.5-4.3
		c1.5-1.1,3.3-1.6,5.2-1.7c2-0.1,4,0.3,6,1.2L459,368.6L459,368.6z M455.7,373.5c-2.1-0.9-3.9-1.3-5.3-1c-1.4,0.2-2.5,1-3.1,2.4
		c-1.2,2.6,0.1,4.8,3.9,6.7l1.6,0.7c2.1,0.9,3.9,1.3,5.3,1.1c1.5-0.2,2.5-1,3.1-2.4c0.6-1.3,0.5-2.6-0.3-3.8
		c-0.8-1.2-2.2-2.3-4.3-3.2L455.7,373.5L455.7,373.5z M467.3,349.9l-3,8.7l8.8,2.8l-1.9,5.4l-22.2-7.1l5.2-15l4.1,1.3l-3.3,9.6
		l5.1,1.6l3-8.7L467.3,349.9L467.3,349.9z M464.2,317.8l-1.3,7l18.8,3l-1,5.6l-18.8-3l-1.3,6.8l-4.3-0.7l3.6-19.4L464.2,317.8
		L464.2,317.8z M475,299.7l-0.8,8.9l5.6,0.3l0.9-10.5l4.3,0.2l-1.4,16.2l-23.4-1.3l1.4-16.2l4.3,0.2l-0.9,10.5l4.9,0.3l0.8-8.9
		L475,299.7L475,299.7z M465.8,274.9l0.1,7l19.1-0.8l0.1,5.7l-19.1,0.8l0.1,6.9l-4.4,0.2l-0.3-19.6L465.8,274.9L465.8,274.9z
		 M471,250.7c2.3-0.3,4.3-0.2,6.2,0.4c1.9,0.6,3.3,1.6,4.5,3c1.1,1.4,1.8,3.1,2,5.1c0.2,2,0,3.8-0.8,5.5c-0.7,1.7-1.9,3.1-3.5,4.2
		c-1.6,1.1-3.5,1.8-5.7,2.2l-1.3,0.2c-2.3,0.3-4.4,0.2-6.2-0.4c-1.8-0.6-3.3-1.6-4.5-3c-1.1-1.4-1.8-3.1-2.1-5.1
		c-0.2-2,0-3.8,0.8-5.5c0.8-1.7,2-3.1,3.6-4.2c1.6-1.1,3.6-1.8,5.8-2.2L471,250.7L471,250.7z M470.7,256.5c-2.3,0.3-4.1,1-5.2,1.9
		c-1.1,0.9-1.6,2.1-1.4,3.6c0.3,2.8,2.6,4,6.9,3.5l1.7-0.2c2.3-0.3,4-1,5.2-1.9c1.1-0.9,1.6-2.1,1.5-3.6c-0.2-1.4-0.9-2.4-2.2-3
		c-1.3-0.6-3.1-0.7-5.4-0.4L470.7,256.5L470.7,256.5z M472.6,235.8l-17.7-0.4l-1.4-6.1l24.7,2l1.3,6l-21.3,13.3l-1.3-6.1
		L472.6,235.8L472.6,235.8z M466.3,209.2l2.8,7.2l4.6-0.4l2.2,5.6l-25,1.1l-1.9-4.9l18.8-17.1l2.2,5.6L466.3,209.2L466.3,209.2z
		 M464.5,216.8l-1.8-4.7l-6.7,5.5L464.5,216.8L464.5,216.8z"/>
	<path id="XMLID_30_" class="st0" d="M250.2,499.9c5.6,0,10.2,4.6,10.2,10.2c0,5.6-4.6,10.2-10.2,10.2c-5.6,0-10.2-4.6-10.2-10.2
		C240,504.4,244.5,499.9,250.2,499.9L250.2,499.9z"/>
	<path id="XMLID_100_" d="M40.9,213.7L40.9,213.7l7.8,6.5l-1.8,5.2l-14-12.5c-1.4-1.3-2.3-2.5-2.6-3.7c-0.4-1.2-0.3-2.4,0-3.6l0.3-1
		l0.3-0.8l3.9,1.2c-0.1,0.1-0.2,0.4-0.4,1c-0.3,0.8-0.3,1.4-0.2,1.8c0.1,0.5,0.5,1,1.2,1.4l0.6,0.5l17.1-2.5l-1.8,5.3L40.9,213.7
		L40.9,213.7z M20.7,239.9l1.2-5.1l8.9,2.1l1.7-7.5l-8.9-2l1.2-5.1L46,227l-1.2,5.1l-8.4-1.9l-1.7,7.5l8.4,1.9l-1.2,5.1L20.7,239.9
		L20.7,239.9z M39.3,260.8l-0.7,5.2L17,263.2l0.7-5.2l13.6,1.8l-12.6-9.5l0.7-5.2l21.6,2.8l-0.7,5.2l-13.7-1.8L39.3,260.8
		L39.3,260.8z M16.1,268.6l21.8,0.5l-0.2,7.8c-0.1,2.8-0.6,4.9-1.7,6.4c-1.1,1.4-2.6,2.1-4.5,2.1c-1.1,0-2.1-0.3-2.9-0.8
		c-0.8-0.5-1.4-1.3-1.7-2.3c-0.3,1.1-0.9,2-1.7,2.6c-0.8,0.6-1.8,0.9-3,0.8c-2.1,0-3.7-0.8-4.8-2.1c-1-1.4-1.5-3.4-1.5-6L16.1,268.6
		L16.1,268.6z M25.2,274l-5.2-0.1l-0.1,3.4c0,1,0.2,1.7,0.6,2.2c0.4,0.5,1,0.8,1.8,0.8c1.8,0,2.7-0.8,2.8-2.6L25.2,274L25.2,274z
		 M28.7,274.1l-0.1,2.7c0,1.1,0.2,2,0.6,2.5c0.4,0.5,1,0.8,1.8,0.8c0.9,0,1.6-0.2,2-0.8c0.4-0.5,0.6-1.4,0.7-2.5l0.1-2.6L28.7,274.1
		L28.7,274.1z M25.3,303.9l-0.2-8.3l-5.2,0.1l0.2,9.8l-4,0.1l-0.3-15l21.8-0.5l0.3,15.1l-4,0.1l-0.2-9.8l-4.6,0.1l0.2,8.3
		L25.3,303.9L25.3,303.9z M24.7,314.2l-7.4,1l-0.7-5.2l21.6-2.8l1.1,8.6c0.2,1.7,0.1,3.2-0.3,4.5c-0.4,1.4-1.2,2.4-2.2,3.3
		c-1,0.8-2.3,1.4-3.7,1.5c-2.1,0.3-3.9-0.3-5.3-1.6c-1.5-1.3-2.4-3.3-2.7-6L24.7,314.2L24.7,314.2z M28.8,313.7l0.4,3.4
		c0.1,1,0.5,1.7,1.1,2.2c0.6,0.5,1.3,0.6,2.2,0.5c1-0.1,1.8-0.5,2.3-1.1c0.5-0.6,0.7-1.4,0.6-2.3l-0.5-3.5L28.8,313.7L28.8,313.7z
		 M37.6,338.8c0.7-0.2,1.2-0.5,1.4-1.2c0.3-0.6,0.3-1.4,0.1-2.3c-0.2-0.8-0.5-1.4-1.1-1.9c-0.5-0.4-1.1-0.5-1.7-0.4l-1.2-5.1
		c1.2-0.3,2.3-0.2,3.4,0.3c1.1,0.5,2,1.2,2.8,2.3c0.8,1.1,1.4,2.4,1.7,3.8c0.6,2.5,0.5,4.6-0.2,6.3c-0.7,1.7-2.1,2.7-4,3.1
		c-1,0.2-1.9,0.1-2.9-0.2c-0.9-0.4-1.8-1-2.4-1.9c-0.1,1.2-0.6,2.3-1.2,3.1c-0.7,0.8-1.7,1.3-2.9,1.6c-1.9,0.4-3.6,0-5.1-1.2
		c-1.5-1.3-2.5-3.2-3.1-5.7c-0.5-2.3-0.4-4.4,0.3-6.2c0.8-1.8,2.1-2.9,4-3.4l1.2,5.1c-0.6,0.1-1.1,0.5-1.4,1.2
		c-0.3,0.7-0.3,1.4-0.1,2.3c0.2,1,0.6,1.7,1.2,2.2c0.6,0.5,1.2,0.7,1.9,0.5c1-0.2,1.7-0.7,2-1.3c0.3-0.6,0.4-1.4,0.1-2.4l-0.6-2.7
		l3.8-0.9l0.7,2.9C34.9,338.5,35.9,339.1,37.6,338.8L37.6,338.8z M49.7,358.1l1.7,5L30.7,370l-1.7-5l13-4.4l-15.5-3.1l-1.7-5
		l20.7-6.9l1.7,5l-13.1,4.4L49.7,358.1L49.7,358.1z M55.8,382.9l-2.7-6l-16.2,7.4l-2.2-4.8l16.2-7.4l-2.7-5.8l3.7-1.7l7.6,16.6
		L55.8,382.9L55.8,382.9z M56.4,401.4l-4.1-7.2l-4.5,2.6l4.9,8.5l-3.5,2l-7.5-13l18.9-10.8l7.5,13.1l-3.5,2l-4.9-8.5l-4,2.3l4.1,7.2
		L56.4,401.4L56.4,401.4z M75.8,415.1l-3.8-5.3l-14.5,10.3l-3.1-4.3l14.5-10.3l-3.7-5.2l3.3-2.4l10.6,14.8L75.8,415.1L75.8,415.1z
		 M68.1,434.2l16.5-14.3l5.1,5.9c1.8,2.1,2.9,4.1,3,5.8c0.2,1.8-0.5,3.3-1.9,4.6c-0.9,0.7-1.8,1.2-2.7,1.3c-0.9,0.1-1.9-0.1-2.8-0.6
		c0.5,1.1,0.7,2.1,0.5,3.1c-0.2,1-0.8,1.9-1.7,2.7c-1.6,1.4-3.3,1.9-5,1.6c-1.7-0.3-3.4-1.5-5.2-3.5L68.1,434.2L68.1,434.2z
		 M78.6,432.1l-3.9,3.4l2.3,2.6c0.6,0.7,1.3,1.1,1.9,1.2c0.7,0.1,1.3-0.1,1.9-0.6c1.4-1.2,1.5-2.5,0.3-3.8L78.6,432.1L78.6,432.1z
		 M81.2,429.9l1.8,2.1c0.8,0.9,1.5,1.3,2.1,1.4c0.6,0.1,1.2-0.1,1.8-0.6c0.7-0.6,1-1.2,1-1.9c0-0.7-0.4-1.4-1.2-2.3l-1.7-1.9
		L81.2,429.9L81.2,429.9z M103.5,455.8c-1.5,1.5-3.1,2.6-4.8,3.3c-1.7,0.6-3.4,0.8-5,0.4c-1.7-0.4-3.2-1.2-4.5-2.5
		c-1.3-1.3-2.2-2.7-2.7-4.3c-0.5-1.6-0.4-3.3,0.1-5c0.5-1.7,1.5-3.3,2.9-4.8l0.8-0.9c1.5-1.5,3.1-2.6,4.8-3.3c1.7-0.6,3.4-0.8,5-0.4
		c1.7,0.4,3.2,1.2,4.5,2.5c1.3,1.3,2.2,2.7,2.7,4.4c0.4,1.6,0.4,3.3-0.1,5c-0.5,1.7-1.5,3.4-3,4.9L103.5,455.8L103.5,455.8z
		 M100.2,451.4c1.5-1.6,2.4-3,2.6-4.3c0.3-1.3-0.1-2.4-1.1-3.4c-1.9-1.8-4.3-1.3-7.1,1.4l-1.1,1.2c-1.5,1.6-2.4,3-2.6,4.3
		c-0.3,1.3,0.1,2.5,1.1,3.4c1,0.9,2.1,1.2,3.4,0.9c1.3-0.3,2.7-1.3,4.2-2.8L100.2,451.4L100.2,451.4z M129.6,466.1l-5.3-3.8
		L114,476.8l-4.3-3l10.3-14.5l-5.2-3.7l2.3-3.3l14.9,10.5L129.6,466.1L129.6,466.1z M139.3,481.9l-7.2-4.1l-2.6,4.5l8.5,4.8l-2,3.5
		l-13.1-7.4l10.8-18.9l13.1,7.5l-2,3.5l-8.5-4.9l-2.3,4l7.2,4.1L139.3,481.9L139.3,481.9z M163.5,484.9l-5.8-3l-8.2,15.8l-4.7-2.4
		l8.1-15.8l-5.7-2.9l1.9-3.6l16.2,8.4L163.5,484.9L163.5,484.9z M180.3,498.9c-0.8,2-1.8,3.6-3.2,4.8c-1.3,1.2-2.8,2-4.5,2.3
		c-1.7,0.3-3.4,0.1-5.1-0.6c-1.7-0.7-3.1-1.7-4.1-3c-1-1.3-1.6-2.9-1.8-4.6c-0.2-1.8,0.1-3.6,0.8-5.6l0.5-1.1c0.8-2,1.8-3.6,3.2-4.8
		c1.3-1.2,2.8-2,4.5-2.3c1.7-0.3,3.4-0.1,5.1,0.6c1.7,0.7,3.1,1.7,4.1,3c1,1.3,1.6,2.9,1.8,4.7c0.2,1.8-0.2,3.7-0.9,5.6L180.3,498.9
		L180.3,498.9z M175.7,496.1c0.8-2,1.1-3.7,0.8-5c-0.3-1.3-1-2.2-2.3-2.7c-2.5-1-4.5,0.4-6.1,4l-0.6,1.5c-0.8,2-1.1,3.7-0.8,5
		c0.2,1.3,1,2.3,2.3,2.8c1.2,0.5,2.4,0.3,3.5-0.5c1.1-0.8,2-2.2,2.8-4.2L175.7,496.1L175.7,496.1z M181.4,509.7l6-21l7.5,2.2
		c2.7,0.8,4.6,1.9,5.7,3.3c1.1,1.4,1.4,3,0.9,4.9c-0.3,1.1-0.8,1.9-1.5,2.6c-0.7,0.6-1.6,1-2.7,1.1c1,0.6,1.7,1.4,2.1,2.3
		c0.4,1,0.4,2,0.1,3.1c-0.6,2.1-1.7,3.4-3.3,4.1c-1.6,0.7-3.7,0.6-6.2-0.1L181.4,509.7L181.4,509.7z M189,502.3l-1.4,5l3.3,1
		c0.9,0.3,1.7,0.3,2.3,0c0.6-0.3,1-0.8,1.2-1.5c0.5-1.7-0.1-2.9-1.9-3.4L189,502.3L189,502.3z M189.9,498.9l2.6,0.8
		c1.1,0.3,1.9,0.3,2.5,0.1c0.6-0.3,1-0.8,1.2-1.5c0.3-0.9,0.2-1.6-0.2-2.1c-0.4-0.5-1.2-1-2.3-1.3l-2.5-0.7L189.9,498.9L189.9,498.9
		z M222.7,507.9c-0.4,2.1-1.1,3.9-2.1,5.4c-1.1,1.5-2.4,2.5-4,3.1c-1.6,0.6-3.3,0.8-5.1,0.4c-1.8-0.3-3.4-1-4.6-2.1
		c-1.3-1.1-2.2-2.5-2.7-4.2c-0.5-1.7-0.6-3.6-0.3-5.6l0.2-1.2c0.4-2.1,1.1-3.9,2.1-5.4c1.1-1.5,2.4-2.5,4-3.1
		c1.6-0.6,3.3-0.8,5.2-0.4c1.8,0.3,3.4,1,4.6,2.2c1.3,1.1,2.2,2.5,2.7,4.3c0.5,1.7,0.6,3.6,0.2,5.7L222.7,507.9L222.7,507.9z
		 M217.6,506.1c0.4-2.1,0.3-3.8-0.2-5.1c-0.5-1.2-1.4-2-2.8-2.2c-2.6-0.5-4.3,1.3-5.2,5.1l-0.3,1.6c-0.4,2.1-0.3,3.8,0.2,5.1
		c0.5,1.3,1.4,2,2.8,2.3c1.3,0.2,2.4-0.1,3.3-1.1c0.9-1,1.5-2.5,1.9-4.6L217.6,506.1L217.6,506.1z"/>
</g>
</svg>
